<?xml version="1.0" encoding="UTF-8"?>
<svg width="1600px" height="1200px" viewBox="0 0 1600 1200" version="1.1" xmlns="http://www.w3.org/2000/svg" xmlns:xlink="http://www.w3.org/1999/xlink">
    <!-- Generator: Sketch 55.2 (78181) - https://sketchapp.com -->
    <title>Hinterrhein</title>
    <desc>Created with Sketch.</desc>
    <g id="Patterns" stroke="none" stroke-width="1" fill="none" fill-rule="evenodd">
        <g id="Hinterrhein" fill-rule="nonzero" stroke-width="30">
            <g transform="translate(-218.0003, -5.000000)" id="Shape">
                
           
              
                <path d="M467,250.225 L467,139.775 C467,118.360233 484.46097,101 506,101 C527.53903,101 545,118.360233 545,139.775 L545,250.225 C545,271.639767 527.53903,289 506,289 C484.46097,289 467,271.639767 467,250.225 Z" stroke="#" stroke-linejoin="round"></path>
                <path d="M1360,312 L1271.92522,312 C1216.18783,312 1171,357.219031 1171,413" stroke="#F6AE9F" stroke-linejoin="round"></path>
                <path d="M205.5,353.509804 C226.210938,353.509804 243,336.830588 243,316.254902 C243,295.679216 226.210938,279 205.5,279 C184.789062,279 168,295.679216 168,316.254902 L168,559" stroke="#05203D" stroke-linejoin="round"></path>
                <path d="M1447.5,506 C1425.68505,506 1408,523.46108 1408,545 C1408,566.53892 1425.68505,584 1447.5,584 C1469.31495,584 1487,566.53892 1487,545 L1487,506" stroke="#F6AE9F" stroke-linejoin="round"></path>
                <path d="M1689,690.754093 C1689,746.670617 1734.8933,792 1791.5,792 C1848.1067,792 1894,746.670617 1894,690.754093 L1894,582" stroke="#89C7AA" stroke-linejoin="round"></path>
                <path d="M1635.62574,738 L1630.52959,738 C1601.52071,738 1578,714.494888 1578,685.5 C1578,656.505112 1601.52071,633 1630.52959,633 L1790.47041,633 C1819.47929,633 1843,656.505112 1843,685.5 C1843,714.494888 1819.47929,738 1790.47041,738 L1788.90237,738" stroke="#05203D" stroke-linejoin="round"></path>
                <path d="M1538,506 L1602.53071,506 C1645.87071,506 1681,540.92216 1681,584" stroke="#89C7AA" stroke-linejoin="round"></path>
                <ellipse stroke="#05203D" stroke-linejoin="round" cx="869" cy="862.5" rx="38" ry="37.5"></ellipse>
                <path d="M776.403578,840.520014 C762.460481,892.643707 792.620681,946.025666 843.760284,959.7565 C894.899888,973.487334 947.656493,942.360965 961.597235,890.237272 C975.537978,838.113579 945.380133,784.73162 894.240529,771" stroke="#" stroke-linejoin="round"></path>
                <path d="M845.65848,770.60169 L660.398666,770.60169 C624.696229,770.582931 595.7394,741.080367 595.722595,704.701923 C595.705848,668.32348 624.633252,638.846139 660.335552,638.864352 C696.037852,638.882633 724.996214,668.384786 725.011456,704.763641 L664.692251,704.763641 L664.692251,704.763641" stroke="#05203D"></path>
                <path d="M841.5,557 C841.5,565.958167 841.5,678.732452 841.5,734" stroke="#89C7AA" stroke-linejoin="round"></path>
                <path d="M501.019608,1112 C484.992157,1112 472,1099.24137 472,1083.5 C472,1067.75863 484.992157,1055 501.019608,1055 L532,1055" stroke="#" stroke-linejoin="round"></path>
                <ellipse stroke="#F6AE9F" stroke-linejoin="round" cx="327.5" cy="1114" rx="41.5" ry="41"></ellipse>
                <path d="M415,1113 C415,1062.19251 374.481857,1021 324.5,1021 C274.518143,1021 234,1062.19251 234,1113 C234,1163.80749 274.518143,1205 324.5,1205" stroke="#05203D" stroke-linejoin="round"></path>
                <path d="M319,672.879245 C319,646.436558 340.490623,625 367,625 C393.509377,625 415,646.436558 415,672.879245 L415,785.120755 C415,811.564226 393.509377,833 367,833 C340.490623,833 319,811.564226 319,785.120755 L319,672.879245 Z" stroke="#89C7AA" stroke-linejoin="round"></path>
                <path d="M1226,890.43662 C1226,868.659718 1243.45939,851 1265,851 C1286.54061,851 1304,868.659718 1304,890.43662 L1304,935" stroke="#F6AE9F" stroke-linejoin="round"></path>
                <ellipse stroke="#F6AE9F" stroke-linejoin="round" cx="1386.5" cy="828" rx="41.5" ry="41"></ellipse>
                <g transform="translate(1352.000000, 1082.000000)" stroke-linejoin="round">
                    <path d="M0.471425188,59 C0.490475063,69 0.509524937,79 0.528574812,89" stroke="#89C7AA"></path>
                    <path d="M0.471425188,0 C0.490475063,10 0.509524937,20 0.528574812,30" stroke="#"></path>
                </g>
                <path d="M1165.47143,1031 C1165.49048,1041 1165.50952,1051 1165.52857,1061" stroke="#89C7AA" stroke-linejoin="round"></path>
                <path d="M1165.47143,972 C1165.49048,982 1165.50952,992 1165.52857,1002" stroke="#F6AE9F" stroke-linejoin="round"></path>
               
                <path d="M746.471425,477 C746.490475,487 746.509525,497 746.528575,507" stroke="#89C7AA" stroke-linejoin="round"></path>
                <path d="M1044.47143,160 C1044.49048,170 1044.50952,180 1044.52857,190" stroke="#89C7AA" stroke-linejoin="round"></path>
                <path d="M1044.47143,103 C1044.49048,113 1044.50952,123 1044.52857,133" stroke="#05203D" stroke-linejoin="round"></path>
                <path d="M1373.47143,637 C1373.49048,647 1373.50952,657 1373.52857,667" stroke="#05203D" stroke-linejoin="round"></path>
                <path d="M1444.47143,637 C1444.49048,647 1444.50952,657 1444.52857,667" stroke="#05203D" stroke-linejoin="round"></path>
                <path d="M1515.47143,637 C1515.49048,647 1515.50952,657 1515.52857,667" stroke="#05203D" stroke-linejoin="round"></path>
            </g>
        </g>
    </g>
</svg>